<svg xmlns="http://www.w3.org/2000/svg" version="1.1" xmlns:xlink="http://www.w3.org/1999/xlink" viewBox="0 0 200 200"><rect width="200" height="200" fill="url('#gradient')"></rect><defs><linearGradient id="gradient" gradientTransform="rotate(79 0.5 0.5)"><stop offset="0%" stop-color="#444444"></stop><stop offset="100%" stop-color="#0a0a0a"></stop></linearGradient></defs><g><g fill="#e63946" transform="matrix(1.5182866556836903,0,0,1.5182866556836903,17.400909871363766,110.64490807783073)" stroke="#ffffff" stroke-width="0.4"><path d="M9.12 0L6.10-5.63L4.48-5.63L4.48 0L1.05 0L1.05-14.22L4.48-14.22L4.48-8.72L5.80-8.72L8.54-14.22L12.69-14.22L8.78-7.66L13.17 0L9.12 0ZM13.19-4.82L13.18-5.38Q13.18-6.96 13.80-8.20Q14.41-9.43 15.57-10.10Q16.72-10.76 18.27-10.76L18.27-10.76Q20.64-10.76 22.01-9.29Q23.38-7.82 23.38-5.29L23.38-5.29L23.38-5.18Q23.38-2.71 22.01-1.25Q20.63 0.20 18.29 0.20L18.29 0.20Q16.04 0.20 14.67-1.16Q13.30-2.51 13.19-4.82L13.19-4.82ZM16.48-5.77L16.47-5.18Q16.47-3.71 16.93-3.03Q17.39-2.34 18.29-2.34L18.29-2.34Q20.05-2.34 20.09-5.05L20.09-5.05L20.09-5.38Q20.09-8.22 18.27-8.22L18.27-8.22Q16.62-8.22 16.48-5.77L16.48-5.77ZM34.24-10.57L34.24 0L30.94 0L30.94-3.92L28.06-3.92L28.06 0L24.77 0L24.77-10.57L28.06-10.57L28.06-6.45L30.94-6.45L30.94-10.57L34.24-10.57ZM35.63-4.82L35.63-5.38Q35.63-6.96 36.24-8.20Q36.86-9.43 38.01-10.10Q39.16-10.76 40.71-10.76L40.71-10.76Q43.09-10.76 44.45-9.29Q45.82-7.82 45.82-5.29L45.82-5.29L45.82-5.18Q45.82-2.71 44.45-1.25Q43.08 0.20 40.73 0.20L40.73 0.20Q38.48 0.20 37.11-1.16Q35.74-2.51 35.63-4.82L35.63-4.82ZM38.93-5.77L38.92-5.18Q38.92-3.71 39.38-3.03Q39.83-2.34 40.73-2.34L40.73-2.34Q42.49-2.34 42.53-5.05L42.53-5.05L42.53-5.38Q42.53-8.22 40.71-8.22L40.71-8.22Q39.06-8.22 38.93-5.77L38.93-5.77ZM64.35-14.22L64.35 0L60.92 0L60.92-11.57L55.81-11.57L55.81 0L52.38 0L52.38-14.22L64.35-14.22ZM67.42-10.57L75.76-10.57L75.76 0L72.47 0L72.47-8.03L70.50-8.03L70.32-4.79Q70.14-2.39 69.24-1.20Q68.34-0.01 66.57 0L66.57 0L65.54 0L65.50-2.52L65.84-2.56Q66.49-2.64 66.81-3.43Q67.13-4.23 67.22-5.84L67.22-5.84L67.42-10.57ZM86.80 0L83.51 0Q83.33-0.32 83.19-0.95L83.19-0.95Q82.29 0.20 80.65 0.20L80.65 0.20Q79.16 0.20 78.12-0.71Q77.07-1.61 77.07-2.98L77.07-2.98Q77.07-4.70 78.34-5.58Q79.61-6.46 82.03-6.46L82.03-6.46L83.05-6.46L83.05-7.01Q83.05-8.47 81.79-8.47L81.79-8.47Q80.62-8.47 80.62-7.31L80.62-7.31L77.32-7.31Q77.32-8.85 78.63-9.80Q79.93-10.76 81.95-10.76Q83.97-10.76 85.15-9.78Q86.32-8.79 86.35-7.07L86.35-7.07L86.35-2.39Q86.37-0.94 86.80-0.17L86.80-0.17L86.80 0ZM81.45-2.15L81.45-2.15Q82.06-2.15 82.47-2.41Q82.87-2.68 83.05-3.01L83.05-3.01L83.05-4.70L82.09-4.70Q80.37-4.70 80.37-3.15L80.37-3.15Q80.37-2.71 80.67-2.43Q80.98-2.15 81.45-2.15ZM93.64-7.37L93.64-7.37Q93.64-8.41 92.55-8.41L92.55-8.41Q91.29-8.41 91.29-7.50L91.29-7.50L88.00-7.50Q88.00-8.94 89.20-9.84Q90.41-10.75 92.33-10.75L92.33-10.75Q94.47-10.75 95.70-9.95Q96.93-9.14 96.93-7.68L96.93-7.68Q96.93-6.97 96.51-6.38Q96.08-5.79 95.31-5.44L95.31-5.44Q97.12-4.80 97.12-2.99L97.12-2.99Q97.12-1.54 95.82-0.67Q94.51 0.20 92.33 0.20L92.33 0.20Q90.35 0.20 89.09-0.71Q87.83-1.61 87.83-3.13L87.83-3.13L91.12-3.13Q91.12-2.72 91.46-2.44Q91.79-2.15 92.56-2.15L92.56-2.15Q93.18-2.15 93.51-2.45Q93.84-2.75 93.84-3.28L93.84-3.28Q93.84-4.41 92.58-4.45L92.58-4.45L91.10-4.45L91.10-6.37L92.44-6.37Q93.64-6.37 93.64-7.37ZM107.75 0L104.46 0Q104.29-0.32 104.15-0.95L104.15-0.95Q103.24 0.20 101.61 0.20L101.61 0.20Q100.12 0.20 99.07-0.71Q98.03-1.61 98.03-2.98L98.03-2.98Q98.03-4.70 99.30-5.58Q100.57-6.46 102.99-6.46L102.99-6.46L104.00-6.46L104.00-7.01Q104.00-8.47 102.74-8.47L102.74-8.47Q101.57-8.47 101.57-7.31L101.57-7.31L98.28-7.31Q98.28-8.85 99.58-9.80Q100.89-10.76 102.91-10.76Q104.93-10.76 106.10-9.78Q107.28-8.79 107.30-7.07L107.30-7.07L107.30-2.39Q107.32-0.94 107.75-0.17L107.75-0.17L107.75 0ZM102.40-2.15L102.40-2.15Q103.02-2.15 103.42-2.41Q103.83-2.68 104.00-3.01L104.00-3.01L104.00-4.70L103.05-4.70Q101.33-4.70 101.33-3.15L101.33-3.15Q101.33-2.71 101.63-2.43Q101.93-2.15 102.40-2.15Z"></path></g></g></svg>